<?xml version="1.0"?>
<svg xmlns="http://www.w3.org/2000/svg" viewBox="0 0 512 512" width="512" height="512"><g id="Flat"><path d="M304,72v56L200,296l-10.78,43.12a159.927,159.927,0,0,1-15.77,39.64l-16.03,28.5L112,488H50.42a10.42,10.42,0,0,1-5.78-19.09L88,440l18.5-47.28L232,72Z" style="fill:#fec093"/><path d="M304,72v56L200,296l-10.78,43.12a159.927,159.927,0,0,1-15.77,39.64l-16.03,28.5L106.5,392.72,232,72Z" style="fill:#b03b8d"/><path d="M80,360v64l8,16-20.649-6.883A40,40,0,0,1,40,395.17V320h0A40,40,0,0,1,80,360Z" style="fill:#61311c"/><path d="M408,488h80l-8-40-24.53-79.72v-.01a145.758,145.758,0,0,0-22.71-44.59L400,280,347.38,122.15A221.658,221.658,0,0,0,314.4,59.2a87.995,87.995,0,0,0-140.8,0l-1.07,1.47L112,144l-2.78,6.95L80,224l8.46,38.06a28.817,28.817,0,0,0,3.37,8.5l-.5,1.588L45.65,318.159a35.4,35.4,0,0,0,2.279,48.3,33.619,33.619,0,0,0,10.4,6.883A34.223,34.223,0,0,0,71.849,376a35.017,35.017,0,0,0,24.56-10.422l3.525-3.552,23.115-6.8-1.96-14.508,12.651-12.743a7.658,7.658,0,0,0,.09-10.773L120.8,304.079,132.182,280.5,152,272l26.76-5.35A35.344,35.344,0,0,0,200.1,210.8L192,200l4.89-17.13L208,144l48-24L360,304l48.7,87.65L440,448l-32,24Z" style="fill:#feb784"/><path d="M64,144,40,184v24l9.1,9.1a8,8,0,0,0,12.313-1.22L104,152,80,136Z" style="fill:#feb784"/><path d="M207.16,232a35.322,35.322,0,0,1-28.4,34.65L152,272l-24.05,10.31a28.828,28.828,0,0,1-39.49-20.25L80,224l29.22-73.05c1.79.67,2.78,1.05,2.78,1.05l84.89,30.87L192,200l8.1,10.8A35.278,35.278,0,0,1,207.16,232Z" style="fill:#c378cb"/><path d="M127.954,282.306h0a28.828,28.828,0,0,0,16.114-35.236L103.32,119.006a22.454,22.454,0,0,0-29.736-14.04h0a22.455,22.455,0,0,0-13.616,25.553L80,224l8.459,38.063A28.826,28.826,0,0,0,127.954,282.306Z" style="fill:#fec093"/><path d="M455.47,368.27,408.7,391.65,360,304,256,120l-26.24,13.12L176,64s-1.29-1.23-3.47-3.33l1.07-1.47a87.995,87.995,0,0,1,140.8,0,221.658,221.658,0,0,1,32.98,62.95L400,280l32.76,43.68A145.758,145.758,0,0,1,455.47,368.27Z" style="fill:#bc4598"/><path d="M76.628,304.505l-10.6.09a12.375,12.375,0,0,0-10.5,6.087,12.113,12.113,0,0,0,6.581,17.828l2.816.89-6.591,43.941C9.5,356.5,21.209,304.248,41.71,288.115l1.119-.809c14.9-10.764,30.307-15,48.5-15.158Z" style="fill:#6e3c26"/></g></svg>
