<svg height="512" viewBox="0 0 512 512" width="512" xmlns="http://www.w3.org/2000/svg"><g id="Flat"><path d="m488 104v80a32 32 0 0 1 -32-32v-48l-32-8v-24h32a32 32 0 0 1 32 32z" fill="#61311c"/><path d="m454.59 421.76-.41.51a47.369 47.369 0 0 1 -37 17.78l-145.18-.05-48-8-40 8h-160v-62.46a9.541 9.541 0 0 1 18.4-3.54l13.6 34 56-7.57 88-11.89 160-20.54 16-32-8-40v-16l-1.23-.41a33.295 33.295 0 0 1 -10.27-57.59l14.68-11.75 32.82-26.25v-40h-28v-24l-8-8 16-16v-10.66c1.91-9.4 5.1-16.93 12.5-21.84 3.86-2.54 11.55-8.29 24.71-6.82 19.06 2.11 59.76 11.71 26.79 87.32v192s2.56 6.82 6 16c2.5 6.64 5.45 14.52 8.25 21.96a48.9 48.9 0 0 1 -7.66 47.8z" fill="#fec093"/><path d="m432 120 5.562-.875a12.187 12.187 0 0 0 -10.011-21.9l-2.865.8-18.773-39.647c13.781-5.25 42.747-3.779 56.847 21.268 19.85 35.254-14.76 64.354-14.76 64.354z" fill="#6e3c26"/><path d="m454.59 421.76-.41.51a47.369 47.369 0 0 1 -37 17.78l-145.18-.05-48-8-40 8h-72v-39.57l88-11.89 160-20.54 8-16h86c2.5 6.64 5.45 14.52 8.25 21.96a48.9 48.9 0 0 1 -7.66 47.8z" fill="#bc4598"/><path d="m448 247.52v48.48h-80v-16l-1.23-.41a33.295 33.295 0 0 1 -10.27-57.59l14.68-11.75c6.41 14.9 24.85 34.02 76.82 37.27z" fill="#c378cb"/><path d="m448 456h-54.111a9.888 9.888 0 0 1 -9.889-9.889 9.888 9.888 0 0 1 5.466-8.844l26.534-13.267-8-112-6.456-103.3a23.251 23.251 0 0 1 23.205-24.7 23.251 23.251 0 0 1 23.251 23.251z" fill="#fec9a3"/></g></svg>