<svg height="512" viewBox="0 0 512 512" width="512" xmlns="http://www.w3.org/2000/svg"><g id="Flat"><path d="m131.714 424-16.571-8.4h-41.429a33.374 33.374 0 0 1 -33.143-33.6v-25.2h24.858l8.285 25.2h24.857a33.373 33.373 0 0 1 33.143 33.6z" fill="#61311c"/><path d="m488 264.08a10.66 10.66 0 0 1 -5.28 9.23l-52.72 30.54-56.82-43.2-42.61-32.4 24.86 100.8h-74.57v-127.16a38.548 38.548 0 0 1 8.95-24.75 37.415 37.415 0 0 1 54.33-3.48l59.92 55.68 25.94 24.11h47.51a10.4 10.4 0 0 1 7.42 3.11 10.67 10.67 0 0 1 3.07 7.52z" fill="#feb784"/><path d="m373.18 260.65-42.61-32.4 24.86 100.8h-74.57v-127.16a38.548 38.548 0 0 1 8.95-24.75 37.415 37.415 0 0 1 54.33-3.48l59.92 55.68z" fill="#b03b8d"/><path d="m381.31 340.57c-11.51 40.83-58.66 36.75-92.14 27.19-3.27-.93-6.41-1.92-9.37-2.92-1.81-.61-23.8-8.04-23.8-8.04l-16.57 4.8-41.43 12h-49.71l-33.15-8.4-62.68-4.52c-15.27-1.1-28.24-14.34-27.92-31.26a30.064 30.064 0 0 1 2.18-10.73 30.445 30.445 0 0 1 27.99-18.91h4.31l18.26-10.18 7.6 10.18h15.47a6.6 6.6 0 0 1 6.59 6.6l-.08 16.82h24.85l16.58-8.4 15.01-25.36a32.5 32.5 0 0 1 2.47-3.62 33.495 33.495 0 0 1 50.42-2.98l23.24 23.56h49.71l-33.53-47.59a43.5 43.5 0 0 1 -2.31-46.33l8.89-15.77 18.67-33.11v-75.6h24.85l16.58 25.2-8.29 67.2-3.69 26.15-4.6 32.65c17.19 14.94 46.95 34.13 64.05 56.74 10.35 13.68 16.06 28.62 11.55 44.63z" fill="#fec093"/><path d="m79.68 349.833-6.536 6.543a10.593 10.593 0 0 1 -16.909-12.338l1.181-2.3-27.616-28.779c-11.834 17.25-6.412 35.249-3.3 43.791a39.1 39.1 0 0 0 15.388 18.829c11.836 7.748 25.8 7.641 38.734 4.029 11.128-3.108 20.628-6.858 34.521-14.408z" fill="#6e3c26"/><path d="m239.43 306.4v55.2l-41.43 12h-.36c-.65-17.42-2.72-36.58-7.93-50.4a113.6 113.6 0 0 0 -22.25-36.3l-1.69-1.08a33.495 33.495 0 0 1 50.42-2.98z" fill="#c378cb"/><path d="m166.538 313.778 75.891-36.93 124.285-106.848 24.857 25.2-8.285 25.2-33.143 8.4-91.143 84-61.407 46.69a26.724 26.724 0 0 1 -10.859 4.923l-3.289.666c-16.637 3.374-32.159-9.527-32.159-26.728a27.29 27.29 0 0 1 15.252-24.573z" fill="#fec9a3"/><path d="m381.31 340.57c-11.51 40.83-58.66 36.75-92.14 27.19l-.03-2.56v-58.8l-33.53-47.59a43.5 43.5 0 0 1 -2.31-46.33l8.89-15.77 2.1.49 41.42 8.4 4.6.95-4.6 32.65c17.19 14.94 46.95 34.13 64.05 56.74 10.35 13.68 16.06 28.62 11.55 44.63z" fill="#bc4598"/><rect fill="#a33484" height="41.795" rx="8" transform="matrix(.804 -.595 .595 .804 -134.217 245.297)" width="16" x="296.905" y="305.302"/></g></svg>