<svg height="512" viewBox="0 0 512 512" width="512" xmlns="http://www.w3.org/2000/svg"><g id="Flat"><path d="m488 153.3v46.7h-464v-46.7a9.3 9.3 0 0 1 18.12-2.94l5.88 17.64 48-2.53 104-5.47a28.926 28.926 0 0 1 25.89-16h1.41a28.861 28.861 0 0 1 9.16 1.49l19.54 6.51 19.73-6.58a27.759 27.759 0 0 1 28.4 6.71l7.87 7.87 104 5.47 48 2.53 5.88-17.64a9.3 9.3 0 0 1 18.12 2.94z" fill="#fec093"/><path d="m416 165.47v34.53h-320v-34.53l104-5.47a28.926 28.926 0 0 1 25.89-16h1.41a28.861 28.861 0 0 1 9.16 1.49l19.54 6.51 19.73-6.58a27.759 27.759 0 0 1 28.4 6.71l7.87 7.87z" fill="#bc4598"/><path d="m311.48 239.28-7.48 104.72v24h-24v-16a3.307 3.307 0 0 0 -3.34-3.32 3.245 3.245 0 0 0 -2.32.98 3.314 3.314 0 0 1 -4.68 0l-3.32-3.32a3.314 3.314 0 0 1 0-4.68l12.69-12.69a3.307 3.307 0 0 0 .97-2.34v-94.63h-48v96l12 12a5.657 5.657 0 0 1 -8 8l-4-4v24h-24v-24l-7.48-104.72a24 24 0 0 1 3.1-13.62l14.55-25.47 9.22-16.13a16.014 16.014 0 0 1 13.9-8.06h29.42a16.014 16.014 0 0 1 13.9 8.06l9.22 16.13 14.55 25.47a24 24 0 0 1 3.1 13.62z" fill="#fec093"/><path d="m293.83 200.19a28.428 28.428 0 0 0 -21.83 15.81s-4.17 8.35-3.48 16h-25.04c.69-7.65-3.48-16-3.48-16a28.428 28.428 0 0 0 -21.83-15.81l9.22-16.13a16.014 16.014 0 0 1 13.9-8.06h29.42a16.014 16.014 0 0 1 13.9 8.06z" fill="#c378cb"/><path d="m232 232v14.111a28.944 28.944 0 0 0 16 25.889l2.343 2.343a8 8 0 0 0 11.314 0l2.343-2.343a28.944 28.944 0 0 0 16-25.889v-14.111z" fill="#fec093"/><path d="m268.422 261.789a20.944 20.944 0 0 1 -9.366 2.211h-6.112a20.944 20.944 0 0 1 -9.366-2.211 20.944 20.944 0 0 1 -11.578-18.733v-11.056a24 24 0 0 1 24-24 24 24 0 0 1 24 24v11.056a20.944 20.944 0 0 1 -11.578 18.733z" fill="#61311c"/><path d="m320 176v16a24 24 0 0 1 -24 24h-24l-5.267 10.534a9.888 9.888 0 0 1 -8.844 5.466 9.888 9.888 0 0 1 -9.889-9.889v-14.111a24 24 0 0 1 24-24h40z" fill="#6e3c26"/></g></svg>