<svg height="512" viewBox="0 0 512 512" width="512" xmlns="http://www.w3.org/2000/svg"><g id="Flat"><path d="m488 208v46.7a9.3 9.3 0 0 1 -18.12 2.94l-5.88-17.64-40 6.67-152 25.33v-56h112a155.415 155.415 0 0 1 40-7.72q4.635-.285 9.3-.28z" fill="#feb784"/><path d="m112 256v176l-14.847 14.847a3.938 3.938 0 0 0 -1.153 2.784 3.937 3.937 0 0 0 5.7 3.521l10.3-5.152v24h24l8-168 16-48z" fill="#fec093"/><path d="m293.26 245.88-13.26 106.12-3.76 64-4.24 72h-50.79a5.213 5.213 0 0 1 -2.89-9.55l19.36-12.9a5.225 5.225 0 0 0 2.32-4.34v-197.21l-32-16-32 16-7.51 7.51a28.971 28.971 0 0 1 -40.98 0l-13.58-13.58-1.75-.02-23.85-.29h-45.15a20.772 20.772 0 0 1 -19.18-21.09 20.044 20.044 0 0 1 1.5-7.24 20.392 20.392 0 0 1 4.57-6.78 20.829 20.829 0 0 1 14.66-5.97h2.96l12.54-6.87 5.22 6.87h10.63a4.482 4.482 0 0 1 4.52 4.45v6.94l31.4.05v-163.98l-14.85-14.85a3.937 3.937 0 0 1 4.55-6.3l10.3 5.15v-24h24l8 144 8 32h64l7.5-1.25 17.61-2.94a45.088 45.088 0 0 1 52.15 50.07z" fill="#fec093"/><path d="m184.11 200c-.06 4.64-.11 8-.11 8v52l-8 4-7.51 7.51a28.971 28.971 0 0 1 -40.98 0l-13.58-13.58-1.75-.02c7.94-4 15.82-9.97 15.82-17.91 0-8-8-16-16-22-.05-.04-.1-.07-.15-.11l.15.03c12.92 2.34 38.31 3.63 51.94-17.92z" fill="#c378cb"/><path d="m424 208.28v38.39l-152 25.33v-56h112a155.415 155.415 0 0 1 40-7.72z" fill="#b03b8d"/><path d="m293.26 245.88-13.26 106.12-3.76 64h-36.24v-152l-16-8v-56l-.5-1.25 17.61-2.94a45.088 45.088 0 0 1 52.15 50.07z" fill="#bc4598"/><path d="m24 352h8a32 32 0 0 0 32-32v-56a32 32 0 0 0 -32 32v40z" fill="#61311c"/><path d="m61.879 250.3-4.49 4.414a7.358 7.358 0 0 1 -6.946 1.871 7.122 7.122 0 0 1 -4.667-10.195l.811-1.553-21.087-15.549a19.978 19.978 0 0 0 -1.5 7.627v9.265c0 .365.008.728.022 1.09.621 15.18 14.694 26.407 30.027 24.524l.807-.133c10.744-1.771 18.979-6.472 26.683-14.046z" fill="#6e3c26"/></g></svg>