<svg height="512" viewBox="0 0 512 512" width="512" xmlns="http://www.w3.org/2000/svg"><g id="Flat"><path d="m488 408v32h-40v-24l8-16-34.29-48-45.71-64-32-32-40-88-8 24 5.33 32 2.67 16v80h-24v48h-48v-48h-24v-80l2.67-16 5.33-32-8-24-40 88-32 32-45.71 64-34.29 48 8 16v24h-40v-32l26.35-56 20.62-43.81a161.02 161.02 0 0 1 49.03-60.19l51.92-136.29a49.245 49.245 0 0 1 57.96-30.24l26.12 6.53 26.12-6.53a49.245 49.245 0 0 1 57.96 30.24l51.92 136.29a160.885 160.885 0 0 1 49.03 60.19l20.62 43.81z" fill="#feb784"/><path d="m304 240v80h-24s-8-24-24-24-24 24-24 24h-24v-80l2.67-16h90.66z" fill="#c378cb"/><path d="m461.65 352h-39.94l-45.71-64-32-32-40-88 8-16-32-16h-48l-32 24 8 8-40 88-32 32-45.71 64h-39.94l20.62-43.81a161.02 161.02 0 0 1 49.03-60.19l51.92-136.29a49.245 49.245 0 0 1 57.96-30.24l26.12 6.53 26.12-6.53a49.245 49.245 0 0 1 57.96 30.24l51.92 136.29a160.885 160.885 0 0 1 49.03 60.19z" fill="#bc4598"/><path d="m168 272 40-32a50.133 50.133 0 0 1 10.63 55.2l-10.63 24.8h-14.111a75.779 75.779 0 0 1 -33.889-8h-48l-64 48-24 48v-64l52.83-59.434a37.44 37.44 0 0 1 27.983-12.566z" fill="#fec093"/><path d="m344 272-40-32a50.133 50.133 0 0 0 -10.63 55.2l10.63 24.8h14.111a75.779 75.779 0 0 0 33.889-8h48l64 48 24 48v-64l-52.83-59.434a37.44 37.44 0 0 0 -27.983-12.566z" fill="#fec093"/><rect fill="#a33484" height="28.844" rx="8" transform="matrix(.832 -.555 .555 .832 -50.135 131.104)" width="16" x="183.437" y="133.922"/><rect fill="#a33484" height="16" rx="8" transform="matrix(.447 -.894 .894 .447 54.584 366.017)" width="35.777" x="305.536" y="130.846"/><path d="m256 440a40 40 0 0 1 -40-40v-14.557a40 40 0 0 1 4.223-17.889l11.777-23.554h48l11.777 23.554a40 40 0 0 1 4.223 17.889v14.557a40 40 0 0 1 -40 40z" fill="#61311c"/><path d="m324.892 440h-48.892a20 20 0 0 1 -20-20 20 20 0 0 1 20-20h60l24-8-3.543 21.261a32 32 0 0 1 -31.565 26.739z" fill="#6e3c26"/></g></svg>