<svg height="512" viewBox="0 0 512 512" width="512" xmlns="http://www.w3.org/2000/svg"><g id="Flat"><path d="m264 288 16 24h-64v-48l-3.92-1.96a21.854 21.854 0 0 1 -3.88-36.6l6.05-4.84 25.75-20.6v-24h32l6.717 40.3a24 24 0 0 1 -2.207 14.679l-11.09 22.181-1.42 2.84z" fill="#fec093"/><path d="m262.451 176.507 14.6-45.726c2.894-11.907-5.618-22-18.377-25.8a23.283 23.283 0 0 0 -8.569-.9 23.841 23.841 0 0 0 -9.153 2.667 24.326 24.326 0 0 0 -11.824 14.161l-1.05 3.288-12.078 11.487 6.807 7.174-3.649 11.429a8 8 0 0 0 5.188 10.054l7.621 2.433c.033 1.226 8.033 33.226 8.033 33.226h32z" fill="#feb784"/><path d="m320 208h16l-8-16v-48a24 24 0 0 0 -24-24h-32v16l24 8v40a24 24 0 0 0 24 24z" fill="#61311c"/><path d="m260.54 151.924 6.494-3.421a8.576 8.576 0 0 0 4.541-7.05 8.3 8.3 0 0 0 -9.667-8.8l-2.012.35-9.796-28.926a23.285 23.285 0 0 1 9 1.036l10.3 3.287q.607.194 1.2.411c16.638 6.071 24.116 25.68 16.588 42.041l-.434.849c-5.776 11.3-13.158 18.939-24.3 24.808z" fill="#6e3c26"/><path d="m464 462.335v25.665h-48v-8l16-16-54.81-21.92-65.19-26.08-72-40-128-16v118.7a9.3 9.3 0 0 1 -9.3 9.3h-45.106a9.5 9.5 0 0 1 -9.425-7.518 9.325 9.325 0 0 1 6.191-10.6l17.64-5.882 8-8-2.46-32-4.66-60.6a40.308 40.308 0 0 1 40.19-43.4h102.93v-8h64l16 32 64 48 27.62 14.87 63.759 34.33a24 24 0 0 1 12.621 21.135z" fill="#fec093"/><path d="m240 256v-136l8-56v-24l8-16h24v40l-8 56 6.523 97.845a24 24 0 0 1 -2.2 11.745l-12.323 26.41z" fill="#fec093"/><path d="m387.62 406.87-1.62 6.13-8.81 29.08-65.19-26.08-72-40-128-16v64h-34.46l-4.66-60.6a40.308 40.308 0 0 1 40.19-43.4h102.93v-8h64l16 32 64 48z" fill="#bc4598"/><path d="m265.42 253.16-1.42 2.84v16h-48v-8l-3.92-1.96a21.854 21.854 0 0 1 -3.88-36.6l6.05-4.84c7.39 12.23 24.85 25.85 51.17 32.56z" fill="#c378cb"/></g></svg>