<svg id="Layer_1" enable-background="new 0 0 512 512" height="512" viewBox="0 0 512 512" width="512" xmlns="http://www.w3.org/2000/svg"><g id="Flat"><path d="m376 288-24 16-17-31-23-73-16-56-16 32h-48l-16-32-16 56-23 73-17 31-24-16 20-32 20-64 12.1-60.7c2.2-11.2 12.1-19.3 23.5-19.3h28.4v-40h32v40h28.3c11.4 0 21.3 8.1 23.5 19.3l12.2 60.7 20 64z" fill="#fec093"/><path d="m272 72v24c-6.6 8.8-19.2 10.6-28 4-1.5-1.1-2.9-2.5-4-4v-24z" fill="#f7b488"/><path d="m268 32h16c17.7 0 32 14.3 32 32v32l8 8c-17.7 0-32-14.3-32-32v-16l-24-8z" fill="#61311c"/><path d="m232 73.8h8v-16.6h-8c-4.5.1-8.1 3.8-8 8.3-.1 4.5 3.5 8.3 8 8.3z" fill="#feb784"/><path d="m280 57.2h-8v16.6h8c4.5-.1 8.1-3.8 8-8.3.1-4.5-3.5-8.2-8-8.3z" fill="#feb784"/><path d="m256 96c-9.6-.1-17.8-6.8-19.9-16.1l-.6-2.6c-.5-2.3-.8-4.6-.8-6.9v-13.2c0-12.2 9.6-22.2 21.3-22.2 11.8 0 21.3 9.9 21.3 22.2v13.1c0 2.3-.3 4.6-.8 6.9l-.6 2.6c-2.1 9.4-10.3 16.1-19.9 16.2z" fill="#fec093"/><path d="m261.3 40.6s5.3 11.1 19.8 25.7c1-4.8 1.5-9.7 1.5-14.6 0-15.3-11.9-27.7-26.7-27.7-14.7 0-26.7 12.4-26.7 27.7 0 2.8.2 5.7.5 8.5 8.4-3.1 20.1-4.4 31.6-19.6z" fill="#6e3c26"/><path d="m276.6 112h6.9l6.9 28.4 2.1 3.3c6.7 10.4 4.8 24-4.4 32.2h-64c-9.2-8.2-11.1-21.9-4.4-32.2l2.1-3.3 6.9-28.4h6.9l1.6 8.3c1.7 9.1 9.7 15.7 19 15.7 9.3 0 17.3-6.6 19-15.7z" fill="#c378cb"/><path d="m284.8 416-4.8 40 16 24v8h-24l-16-16-16 16h-24v-8l16-24-4.8-40-16.2-134.9c-.5-4.5-.8-8.9-.8-13.4 0-12.1 2-24.2 5.8-35.7l12-32-4-24h64l-4 24 12 32c5.3 15.8 7 32.6 5 49.1z" fill="#fec093"/><path d="m248 200h16v32h-16z" fill="#f7b488"/><path d="m301 281.1-16.2 134.9h-57.6l-16.2-134.9c-.5-4.5-.8-8.9-.8-13.4 0-12.1 2-24.2 5.8-35.7h80c5.3 15.8 7 32.6 5 49.1z" fill="#b03b8d"/><path d="m248 272h16v144h-16z" fill="#a33484"/><path d="m248 416h16v48c0 4.4-3.6 8-8 8-4.4 0-8-3.6-8-8z" fill="#f5a76e"/></g></svg>