<?xml version="1.0"?>
<svg xmlns="http://www.w3.org/2000/svg" viewBox="0 0 512 512" width="512" height="512"><g id="Flat"><path d="M488,488H433.3a9.3,9.3,0,0,1-2.94-18.12L448,464l-37.65-42.35L320,320H304V248h11.16A53.9,53.9,0,0,1,360,272l16,32,40,64,24,24,28.8,38.4A96.051,96.051,0,0,1,488,488Z" style="fill:#feb784"/><path d="M440,392l-29.65,29.65L320,320H304V248h11.16A53.9,53.9,0,0,1,360,272l16,32,40,64Z" style="fill:#b03b8d"/><path d="M350.19,277.88a37.771,37.771,0,0,1-5.4,19.47,91.509,91.509,0,0,1-22.27,25.14L264,368l-48,32-40,40-26.18,13.09L144,456,96,488H65.3a9.3,9.3,0,0,1-2.94-18.12L80,464l47.32-40.87L256,312l32-72h24.31a37.881,37.881,0,0,1,37.88,37.88Z" style="fill:#feb784"/><path d="M350.19,277.88a37.771,37.771,0,0,1-5.4,19.47,91.509,91.509,0,0,1-22.27,25.14L264,368l-48,32-40,40-26.18,13.09L128,424s-.24-.3-.68-.87L256,312l32-72h24.31a37.881,37.881,0,0,1,37.88,37.88Z" style="fill:#bc4598"/><path d="M184,304H144v32l8,56v72l-17.642,5.881A9.3,9.3,0,0,0,128,478.7h0a9.3,9.3,0,0,0,9.3,9.3H184Z" style="fill:#f7b488"/><path d="M208,240l-24-24V32a8,8,0,0,0-8-8H160a8,8,0,0,0-8,8V48l-9.76-4.88a4.309,4.309,0,0,0-5.78,5.79L152,80v72l-8,56v58.634H114.731V246.659H94.755L88.1,240,76.064,252.417l-6.456.972a25.718,25.718,0,0,0-20.085,30.365c2.839,13.93,17.985,25.671,31.915,22.832,0,0,19.92-2.439,39.952-6.659H144V312h10.665l7.385,5.54a33.3,33.3,0,0,0,43.51-3.1L224,296l7.67,3.83L256,312l32-72Z" style="fill:#f7b488"/><path d="M32,336v56l-8,8,14.276-2.855A32,32,0,0,0,64,365.766V304h0A32,32,0,0,0,32,336Z" style="fill:#61311c"/><path d="M99.005,290.922l-4.35,6.579a9.035,9.035,0,0,1-16.236-7.421l.595-2.124L49.427,273.941c-3.068,11.932-2.606,31.786,15.962,42.239,26.137,14.715,56-16.253,56-16.253Z" style="fill:#6e3c26"/><path d="M232,240v56s-.12,1.41-.33,3.83L224,296l-18.44,18.44a33.3,33.3,0,0,1-43.51,3.1L144,304s32,0,32-24-32-24-32-24v-8c16,0,32,0,56-16l8,8Z" style="fill:#c378cb"/></g></svg>
