<svg id="Layer_1" enable-background="new 0 0 512 512" height="512" viewBox="0 0 512 512" width="512" xmlns="http://www.w3.org/2000/svg"><g id="Flat"><path d="m102 416h130l-16-56h-56l-62.3 12.5c-10.3 2-17.7 11-17.7 21.5 0 12.2 9.8 22 22 22z" fill="#b03b8d"/><path d="m164 432h-52l-8-8v-16l8-8h16l16 8h20c6.6 0 12 5.4 12 12 0 6.6-5.4 12-12 12z" fill="#fec093"/><path d="m488 408.6c-.4 4.3-4 7.5-8.3 7.4h-252.3c-32.1 0-62.1-16-79.9-42.8l-3.5-5.2-23.1-34.7c-.8-1.1-1.5-2.3-2.2-3.5-4.4-7.9-6.7-16.8-6.7-25.8l-11.5-7.7-2.7-1.8c-13.9-9.3-17.6-28-8.4-41.9 1.5-2.3 3.3-4.3 5.3-6.1 1-.8 2-1.6 3-2.3l6.3-4.2 16-24-5.8-29.9h-12.8c-2.9 0-5.2-2.4-5.2-5.3v-12.4l-8-6.1 8-14.6v-3.5c0-6.4 2.5-12.5 7-17.1 2.3-2.3 5-4.1 7.9-5.3 2.7-1.1 5.5-1.7 8.4-1.8 12.8-.2 23.6 9.6 24.6 22.4l-.1 49.6 8 16 5.4 10.9c.7 1.4 1.4 2.8 2 4.3.1.3.2.6.4.9 4.2 10 6.2 20.8 6.1 31.6 0 2.6-.2 5.3-.5 7.9l-3.9 35-1.5 13.4 25.2 7.2c1.9.5 3.7 1.2 5.5 2 15.3 6.8 25.2 22 25.2 38.8l80 16h31.2c5.8 0 11.7.6 17.4 1.9l23.4 5.2 40 8.9 30.2-6c6.2-1.3 12.7 0 18 3.6l15.9 10.4h8c4.4 0 8 3.6 8 8z" fill="#feb784"/><path d="m165.9 255.6c0 2.6-.2 5.3-.5 7.9l-3.9 35-49.5 5.5-11.5-7.7-2.7-1.8c-13.9-9.3-17.6-28-8.4-41.9 1.5-2.3 3.3-4.3 5.3-6.1.4.1.9.3 1.3.3 14.3 2.9 35.2-.6 63.4-23.7.1.3.2.6.4.9 4.1 10 6.2 20.8 6.1 31.6z" fill="#c378cb"/><path d="m368 383.1v32.9h-140.6c-32.1 0-62.1-16-79.9-42.8l-3.5-5.2 46.8-46.8c15.3 6.8 25.2 22 25.2 38.8l80 16h31.2c5.8 0 11.7.6 17.4 1.9z" fill="#bc4598"/><path d="m159.8 224h-15.2c-10 0-18.9 6.2-22.4 15.5l-21.6 56.8-44.6 79.7-24 16-8 24v16h16l8-16 6.3 12.5c1.6 3.1 5.4 4.4 8.5 2.8 2.7-1.3 4-4.3 3.3-7.2l-4.1-16.1 10-16 46.7-62.2 25.3-57.8 21.9-16.4c.1-10.8-2-21.6-6.1-31.6z" fill="#fec093"/><path d="m208 216-8-16v-40c0-13.3-10.7-24-24-24h-24v16l24 8v32c0 13.3 10.7 24 24 24z" fill="#61311c"/><path d="m135.7 164.2 5.2-5.2c2.1-2.1 2.9-5.2 2.2-8.1-1.1-4.5-5.6-7.2-10-6.1-.7.2-1.3.4-1.9.7l-1.8.9-18.1-24.6c2.8-1.2 5.8-1.8 8.9-1.8h10.8 1.3c17.7.7 30.8 17.1 28.6 35l-.2.9c-2.1 12.5-7.8 27-16.6 36z" fill="#6e3c26"/></g></svg>