<svg height="512" viewBox="0 0 512 512" width="512" xmlns="http://www.w3.org/2000/svg"><g id="Flat"><path d="m48 216v-39.036a49.453 49.453 0 0 1 40.248-48.589l42.884-8.125 16.635-14.574a49.454 49.454 0 0 1 -35.331 60.358l-38.276 10.01-2.06 31.209z" fill="#6e3c26"/><path d="m90.767 302.116 10.461-10.461 19.854-2.711a8 8 0 0 0 6.918-7.926v-17.018l40-32-40-32-59.385 18.424a36.616 36.616 0 1 0 0 73.231h5.231z" fill="#feb784"/><path d="m27.333 221.667c12.667-25.667 30.667-32.68 57.751-29.296l1.426.239c18.981 3.181 41.49 7.39 41.49 7.39l-29.084 30.99-7.931-7.931a12.85 12.85 0 0 0 -12.271-3.359c-7.99 2.044-15.381 8.97-11.047 18.636l4.333 9.664-36.188 23.312s-20.275-25.742-8.479-49.645z" fill="#6e3c26"/><path d="m475.65 248h-11.65l-38.02-25.34a12 12 0 0 0 -16.64 3.32l-9.34 14.02-56-11.2-64-12.8 78.9-72.32a64.873 64.873 0 0 0 20.38-38.65l.13-.92a64.895 64.895 0 0 0 -93.23-67.2l-6.18 3.09a428.4 428.4 0 0 0 -86.76 65.44q-6.825 6.645-13.35 13.61l-13.03 13.9-42.153 42.737a32 32 0 0 0 -2.47 42.126l85.763 110.187 8 120-34 13.6a9.539 9.539 0 0 0 3.54 18.4h60.92a9.54 9.54 0 0 0 9.54-9.54v-158.46l-58.75-83.83 7.5-1.67a39.052 39.052 0 0 0 6.22-1.95c-.03.7-.05 1.4-.05 2.11a45.351 45.351 0 0 0 45.35 45.34h219.73a11.984 11.984 0 0 0 12-11.975 12.332 12.332 0 0 0 -12.35-12.025zm-240.54-67.2c-.16-.85-.34-1.7-.55-2.54l-2.56-10.26 16-32 40-24 16-16z" fill="#fec093"/><path d="m232 168 5.56-11.12-44.32-51.44q-6.825 6.645-13.35 13.61l-13.03 13.9.14.72c30.25 30.25 28.561 71.539 26.173 89l4.059 5.5 7.518-1.669a39.546 39.546 0 0 0 29.81-48.24z" fill="#c378cb"/><path d="m380.06 94.93a64.509 64.509 0 0 1 -.65 9.18l-.13.92a64.873 64.873 0 0 1 -20.38 38.65l-78.9 72.32 64 12.8v43.2h-87.73a45.338 45.338 0 0 1 -35.19-73.94l82.92-102.06-24-56 13.96-6.36a64.862 64.862 0 0 1 86.1 61.29z" fill="#bc4598"/><path d="m304.667 95.583a8 8 0 0 1 -.514-11.3l9.547-10.769a8 8 0 0 1 11.3-.514 8 8 0 0 1 .514 11.3l-9.545 10.767a8 8 0 0 1 -11.302.516z" fill="#a33484"/></g></svg>