<svg height="512" viewBox="0 0 512 512" width="512" xmlns="http://www.w3.org/2000/svg"><g id="Flat"><path d="m488 232h-8a32 32 0 0 1 -32-32v-56a32 32 0 0 1 32 32v40z" fill="#61311c"/><path d="m446.31 249.81-4.6 48.54-16.27 15.36-17.44-17.71 6.25-37.5-21.11 30.15-33.14 47.35-72-24 32-32 4.88-29.29 3.12-18.71v-24l-49.36-35.26a15.844 15.844 0 0 1 9.21-28.74h3.76a15.814 15.814 0 0 1 8.15 2.26l60.37 36.22 15.87 9.52 9.89-13.19 14.11-18.81 24 16-9.16 18.32-6.84 13.68 14.99 9.99 9.01 6.01a26.1 26.1 0 0 1 14.31 25.81z" fill="#feb784"/><path d="m424 176-9.16 18.32a25.771 25.771 0 0 1 -28.95-15.51l14.11-18.81z" fill="#f7b488"/><path d="m414.25 258.5-21.11 30.15-1.14-.65-67.12-37.29 3.12-18.71v-9.31c10.03-2.79 26.56-11.49 32-38.69l.13-1.52 15.87 9.52s-8 16 8 24 24-8 24-8l14.99 9.99c-2.76 5.72-10.17 22.95-8.74 40.51z" fill="#c378cb"/><path d="m487.831 440.48a9.5 9.5 0 0 1 -9.425 7.52h-46.406l-5.14-71.94-2.86-40.06-64 32-40 8-128 72h-157.78a10.218 10.218 0 0 1 -5.26-18.98l35.04-21.02 32 8 24-3.43 32-4.57h32l64-48a71.728 71.728 0 0 1 37.5-46.75l2.5-1.25h56l62.23-22.629a43.056 43.056 0 0 1 45.159 10.018 43.055 43.055 0 0 1 12.611 30.445v94.166l17.64 5.88a9.324 9.324 0 0 1 6.191 10.6z" fill="#fec093"/><path d="m464 329.834v47.066l-37.14-.84-2.86-40.06-64 32-40 8-128 72h-72v-35.43l32-4.57h32l64-48a71.728 71.728 0 0 1 37.5-46.75l2.5-1.25h56l62.23-22.629a43.056 43.056 0 0 1 45.159 10.018 43.055 43.055 0 0 1 12.611 30.445z" fill="#bc4598"/><path d="m436.075 286.471-56.595-46.3 10.469-20.939a7.99 7.99 0 0 0 .845-3.577v-1.426a8 8 0 0 0 -8-8 8 8 0 0 0 -5.657 2.344l-25.937 25.937a8 8 0 0 0 0 11.313l63.386 63.386a15.353 15.353 0 0 0 10.855 4.5h.916a15.353 15.353 0 0 0 15.353-15.353 15.353 15.353 0 0 0 -5.635-11.885z" fill="#fec093"/><path d="m299.234 149.631 46.305 56.594 20.938-10.469a8.007 8.007 0 0 1 3.578-.844h1.425a8 8 0 0 1 8 8 8 8 0 0 1 -2.343 5.657l-25.937 25.941a8 8 0 0 1 -11.314 0l-63.386-63.386a15.349 15.349 0 0 1 -4.5-10.856v-.916a15.352 15.352 0 0 1 15.352-15.352 15.352 15.352 0 0 1 11.882 5.631z" fill="#fec093"/><path d="m389.433 147.5 8.94 4.642 9.283-17.88-8.939-4.641a10.072 10.072 0 0 0 -13.582 4.3 10.073 10.073 0 0 0 4.298 13.579z" fill="#feb784"/><path d="m452.354 157.468-8.939-4.642-9.284 17.879 8.94 4.642a10.072 10.072 0 0 0 13.581-4.3 10.072 10.072 0 0 0 -4.298-13.579z" fill="#feb784"/><path d="m403.874 185.261a25.8 25.8 0 0 1 -13.209-28.88l.766-3.217a34.43 34.43 0 0 1 2.934-7.879l7.331-14.12a26.861 26.861 0 0 1 36.217-11.465 26.861 26.861 0 0 1 11.461 36.217l-7.331 14.12a34.462 34.462 0 0 1 -4.757 6.932l-2.19 2.477a25.8 25.8 0 0 1 -31.222 5.815z" fill="#fec093"/><path d="m440.779 128.758s-.23 15.014 7.8 39.194a85.246 85.246 0 0 0 9.848-14.9 33.576 33.576 0 0 0 -14.327-45.268 33.576 33.576 0 0 0 -45.271 14.327 85.364 85.364 0 0 0 -4.2 9.463c10.914 1.433 24.733 6.806 46.15-2.816z" fill="#6e3c26"/><rect fill="#feb784" height="16" rx="8" transform="matrix(.707 -.707 .707 .707 -49.99 322.392)" width="36.687" x="345.823" y="213.539"/></g></svg>