<svg height="512" viewBox="0 0 512 512" width="512" xmlns="http://www.w3.org/2000/svg"><g id="Flat"><path d="m384 261.03a18.983 18.983 0 0 1 -18.97 18.97 8.531 8.531 0 0 1 -7.47-4.4l-37.56-67.6h-16l-13.52 32h-68.96l-13.52-32h-16l-37.56 67.6a8.547 8.547 0 0 1 -7.47 4.4 18.983 18.983 0 0 1 -18.97-18.97 51.162 51.162 0 0 1 6.24-24.47l34.94-64.05a23.988 23.988 0 0 1 21.07-12.51h45.75v-56h40v56h45.75a23.988 23.988 0 0 1 21.07 12.51l34.94 64.05a51.771 51.771 0 0 1 4.65 11.84 51.132 51.132 0 0 1 1.59 12.63z" fill="#fec093"/><path d="m276 104v33.64a34.627 34.627 0 0 1 -40 0v-33.64z" fill="#f7b488"/><path d="m318.069 134.345h13.793l-6.9-13.793v-55.173a27.587 27.587 0 0 0 -27.587-27.586h-27.582v20.69l20.69 6.9v41.38a27.586 27.586 0 0 0 27.586 27.582z" fill="#61311c"/><path d="m207.724 251.586 6.897 41.38-6.621 27.034h96l-6.621-27.034 6.897-41.38z" fill="#fec093"/><path d="m248 286.069h16v33.931h-16z" fill="#f7b488"/><path d="m219.793 99.862h12.069v-23.851h-12.069a12 12 0 0 0 -12.069 11.926 12 12 0 0 0 12.069 11.925z" fill="#feb784"/><path d="m293.069 76.012h-11.207v23.85h11.207c6.189 0 11.207-5.339 11.207-11.925 0-6.586-5.018-11.925-11.207-11.925z" fill="#feb784"/><path d="m256 134.345c-15.2 0-28.448-9.78-32.135-23.722l-1.029-3.893a39.589 39.589 0 0 1 -1.319-10.13v-19.308c0-18.006 15.439-32.6 34.483-32.6 19.044 0 34.483 14.6 34.483 32.6v19.308a39.589 39.589 0 0 1 -1.319 10.127l-1.029 3.893c-3.687 13.945-16.935 23.725-32.135 23.725z" fill="#fec093"/><path d="m264.276 48.358s8.276 16.239 30.793 37.711a101.291 101.291 0 0 0 2.31-21.472c0-22.421-18.526-40.597-41.379-40.597-22.853 0-41.379 18.176-41.379 40.6a101.282 101.282 0 0 0 .78 12.494c12.749-4.545 30.915-6.479 48.875-28.736z" fill="#6e3c26"/><path d="m304.276 251.586a35.327 35.327 0 0 0 0-55.172l-8.276-36.414h-16l.215 2.657c1.114 13.754-9.152 26.133-22.933 26.828q-.637.031-1.282.032-.645 0-1.282-.032c-13.781-.7-24.047-13.074-22.933-26.828l.215-2.657h-16l-8.276 36.414a35.327 35.327 0 0 0 0 55.172z" fill="#c378cb"/><path d="m140.161 243.323 91.839-35.323 14.8-37a4.77 4.77 0 0 1 4.429-3 4.771 4.771 0 0 1 4.77 4.77v59.23l-99.434 45.892a22.888 22.888 0 0 1 -9.594 2.108 18.972 18.972 0 0 1 -18.971-18.971 18.971 18.971 0 0 1 12.161-17.706z" fill="#fec9a3"/><path d="m371.839 243.323-91.839-35.323-14.8-37a4.77 4.77 0 0 0 -4.429-3 4.771 4.771 0 0 0 -4.77 4.77v59.23l99.434 45.892a22.888 22.888 0 0 0 9.594 2.108 18.972 18.972 0 0 0 18.971-18.971 18.971 18.971 0 0 0 -12.161-17.706z" fill="#fec9a3"/><rect fill="#f7b488" height="64" rx="8" width="16" x="248" y="168"/><path d="m320 376h-48l-40 24v56l-5.515 22.06a8 8 0 0 0 7.761 9.94h37.754a8 8 0 0 0 8-8v-16l-5-40h45z" fill="#fec093"/><path d="m264 464h-24a8 8 0 0 1 -8-8 8 8 0 0 1 8-8h24z" fill="#f7b488"/><path d="m304 320h-96l-14.069 35.034-91.45 10.759a29.2 29.2 0 0 0 -25.791 29 29.2 29.2 0 0 0 29.2 29.2h67.026a223.7 223.7 0 0 0 83.084-15.993l17.717 7.087a124.622 124.622 0 0 0 46.283 8.913v-72z" fill="#b03b8d"/><path d="m300 448a33.551 33.551 0 0 1 -33.009-27.548l-3.12-17.162a36.721 36.721 0 0 1 36.129-43.29 36.721 36.721 0 0 1 36.129 43.29l-3.12 17.162a33.551 33.551 0 0 1 -33.009 27.548z" fill="#bc4598"/><path d="m373.24 344.69a10.345 10.345 0 0 1 -10.34 10.34h-3.45l-68.97 34.49-55.37 12.58-96.35 21.9h-34.01a28.063 28.063 0 0 1 -.97-56.11l124.91-4.31 48-1.65 3.02-12.06a15.985 15.985 0 0 1 19.4-11.64l12.06 3.01 27.59-6.9h24.14a10.349 10.349 0 0 1 10.34 10.35z" fill="#fec093"/><path d="m235.11 402.1-96.35 21.9h-34.01a28.063 28.063 0 0 1 -.97-56.11l124.91-4.31z" fill="#bc4598"/></g></svg>