<svg height="512" viewBox="0 0 512 512" width="512" xmlns="http://www.w3.org/2000/svg"><g id="Flat"><path d="m448 304v24h-16a32 32 0 0 0 -32 32v8l8-8h32a32 32 0 0 0 32-32v-24z" fill="#61311c"/><path d="m400 264h-40l8-80v-48l-8-32 16-16h24z" fill="#fec093"/><path d="m432 304h32c10.317-.73 23.509-10.334 23.3-21.571a19.634 19.634 0 0 0 -1.475-7.122 20.11 20.11 0 0 0 -4.494-6.674 20.531 20.531 0 0 0 -14.421-5.872h-2.914l-12.344-6.761-5.141 6.761h-10.453a4.419 4.419 0 0 0 -4.456 4.381v10.758l-31.602.1v26z" fill="#fec093"/><path d="m450.028 295.982 4.418 4.343a7.24 7.24 0 0 0 6.834 1.841 7.008 7.008 0 0 0 4.593-10.031l-.8-1.528 20.745-15.3a19.647 19.647 0 0 1 1.479 7.5v9.116q0 .538-.022 1.072c-.61 14.937-14.457 25.983-29.545 24.131l-.794-.131c-10.572-1.742-17.358-5.547-24.938-13z" fill="#6e3c26"/><path d="m384.49 248.49a28.963 28.963 0 0 0 -40.98 0l-15.51 15.51-16 8-24-9.6-5.99-2.39a55.88 55.88 0 0 0 -20.79-4.01h-8.6a28.615 28.615 0 0 0 -28.62 28.62v19.38h-144l-24-8-32 32v16l16-8 32-8 64 9.85 40 6.15h96l16-6.86 40-17.14h72v-56z" fill="#fec093"/><path d="m400 304c-10.36-2.39-23.46-8.54-32 0a89.552 89.552 0 0 0 -12.43 16h-19.57v-64l7.51-7.51a28.971 28.971 0 0 1 40.98 0l15.51 15.51c-5.23.2-12.13 1.35-15.03 6.14-4.33 7.13.01 16.83 4.3 22.84 2.01 2.81 7 10.16 10.73 11.02z" fill="#c378cb"/><path d="m288 262.4v74.74l-16 6.86h-96l-40-6.15v-33.85h88v-19.38a28.615 28.615 0 0 1 28.62-28.62h8.6a55.88 55.88 0 0 1 20.79 4.01z" fill="#b03b8d"/><path d="m314.01 367.66a34.573 34.573 0 0 1 -46.98 32.28l-59.43-22.86-23.6-9.08-32-8h-4a12 12 0 0 1 0-24h36l32.28 7.17 39.72 8.83-21.25-31.88a64.041 64.041 0 0 1 -10.75-35.5 28.624 28.624 0 0 1 55.2-10.63l32.34 80.85a34.568 34.568 0 0 1 2.47 12.82z" fill="#fec093"/><path d="m314.01 367.66a34.573 34.573 0 0 1 -46.98 32.28l-59.43-22.86.4-1.08 8-32s.1-.3.28-.83l39.72 8.83-21.25-31.88a64.041 64.041 0 0 1 -10.75-35.5 28.624 28.624 0 0 1 55.2-10.63l32.34 80.85a34.568 34.568 0 0 1 2.47 12.82z" fill="#bc4598"/><rect fill="#a33484" height="25.298" rx="8" transform="matrix(.316 -.949 .949 .316 -154.48 497.67)" width="16" x="260" y="343.351"/><path d="m368 320v16l-8 40-48-8-9.635-14.453a3.474 3.474 0 0 0 -6.365 1.927v8.526l-14.632-7.316a8 8 0 0 0 -11.422 5.587l-4.377 21.884a8 8 0 0 0 6.276 9.414l32.155 6.431 45.048 7.508a36.213 36.213 0 0 0 5.945.492 36.159 36.159 0 0 0 35.3-28.316l9.707-43.684v-16z" fill="#fec093"/></g></svg>