<svg height="512" viewBox="0 0 512 512" width="512" xmlns="http://www.w3.org/2000/svg"><g id="Flat"><path d="m485.33 332.92-3.78 3.79a18.752 18.752 0 0 1 -21.63 3.51l-3.92-1.96-12.04 6.02a18.733 18.733 0 0 1 -25.14-8.38l-2.82-5.64-31.59-9.03-24.41-6.97-32-24-56-24-7.26 2.42a36.07 36.07 0 0 1 -44.9-20.83l-1.52-3.79-10.32-25.8-24 3.44-16 2.3h-24l-32-8-4.37-2.45-16.12-9.05c-52.11 22.72-58.73-5.33-60.19-18.47-1.01-9.07 2.95-14.37 4.7-17.03 3.39-5.1 8.58-7.3 15.06-8.61h7.35l11.02-8.39 5.52 5.51h16.54v14.99l28.49 3.5 15.29-15.29c.5-.5 1.02-.98 1.55-1.42a26.192 26.192 0 0 1 19.45-6.14l.03.01a26.241 26.241 0 0 1 18.65 10.57l9.03 12.27h16l39.07 12.74 16.93 5.52 16 16 126.82 74.94 49.18 29.06 24 4.8 3.98-1.2c5.57-1.67 11.14 1.62 11.93 7.38a9.072 9.072 0 0 1 -2.58 7.68z" fill="#fec093"/><path d="m184.04 176-.04 2.26v43.44l-16 2.3h-24l-32-8-4.37-2.45c23.54-16.82 28.7-39.45 29.21-54.26a26.192 26.192 0 0 1 19.45-6.14l.03.01a26.241 26.241 0 0 1 18.65 10.57l9.03 12.27z" fill="#c378cb"/><path d="m24 290.255h8a32 32 0 0 0 32-32v-48a32 32 0 0 0 -32 32v32z" fill="#61311c"/><path d="m73.276 194.85s-7.926 8.27-15.163 4.824c-5.737-2.732-4.824-9.649 0-14.818 0 0-.344-2.068-8.271-7.582a32.287 32.287 0 0 0 -15.378-5.858c-7.323 11.2-8.4 32.394 10.209 43.077 24.186 13.884 46.835-9.994 46.835-9.994z" fill="#6e3c26"/><path d="m398.82 285.2-14.41 36.03-24.41-6.97-32-24-56-24-7.26 2.42a36.07 36.07 0 0 1 -44.9-20.83l-1.52-3.79 20.75-55.32 16.93 5.52 16 16z" fill="#bc4598"/><path d="m112.779 208.362 7.221 151.638 40 2.255v-16l-16-10.255v-128.381a15.619 15.619 0 0 0 -15.619-15.619 15.619 15.619 0 0 0 -15.602 16.362z" fill="#fec093"/></g></svg>