<svg height="512" viewBox="0 0 512 512" width="512" xmlns="http://www.w3.org/2000/svg"><g id="Flat"><path d="m304 184-48-80-96-80h-32l24 24h-16v8h24l56 56 48 88h40z" fill="#feb784"/><path d="m472 479.02a8.979 8.979 0 0 1 -8.98 8.98h-55.02v-128l-39.41 3.94a272.778 272.778 0 0 1 -80.59-3.94l-163.43 75.43-44.57 20.57 8 32h-40l-8-32 24-24 40.35-23.54 55.65-32.46 48-32a278.332 278.332 0 0 1 26.01-29.99q5-5.01 10.25-9.73 9.48-8.595 19.74-16.28l-8-40h-8l-40-16 16-24-.08-.11-11.56-15.63c-18.74 3.74-37.36 5.82-37.36 5.82-13.02 2.52-27.05-8.59-29.56-21.62a23.919 23.919 0 0 1 0-9.16 24.329 24.329 0 0 1 3.69-8.86 23.989 23.989 0 0 1 15.35-10.12l6.04-.85 11.35-11.47 6.15 6.28 18.64.19 1.34 17.53 40 16h24l5.18-1.3a34.474 34.474 0 0 1 39.18 18.02 34.893 34.893 0 0 1 2.72 7.5 34.413 34.413 0 0 1 .92 7.91v7.87l3.2 9.6 3.16 9.47a31.965 31.965 0 0 1 1.64 10.12v42.81l2.62 7.85 5.38 16.15 91.8 4.99a27.1 27.1 0 0 1 25.64 27.06 26.323 26.323 0 0 1 -.17 3.07l-7.82 68.88-5.45 48 25.19 6.3a8.986 8.986 0 0 1 6.81 8.72z" fill="#fec093"/><path d="m323.2 225.6-67.2 22.4h-.48c4.43-22.41-19-31.92-34.38-35.71l2.86-4.29-.08-.11c6.91-.57 36.94-3.53 41.58-12.39 9.01-17.2-8.49-19.31-15.11-19.5h21.61l5.18-1.3a34.474 34.474 0 0 1 39.18 18.02 34.893 34.893 0 0 1 2.72 7.5 34.413 34.413 0 0 1 .92 7.91v7.87z" fill="#c378cb"/><path d="m208 232-8 16-16 48-48 72-16 24h24l16-24 8 16 8-8v-16l40-64 32-48" fill="#fec093"/><path d="m453.44 344.05a26.323 26.323 0 0 1 -.17 3.07l-7.82 68.88h-37.45v-56l-39.41 3.94a272.778 272.778 0 0 1 -80.59-3.94l-163.43 75.43-20.22-26.97 55.65-32.46 48-32a278.332 278.332 0 0 1 26.01-29.99q5-5.01 10.25-9.73l3.74-.28 80-8 2.62-.15 5.38 16.15 91.8 4.99a27.1 27.1 0 0 1 25.64 27.06z" fill="#bc4598"/><path d="m134.667 225.333v53.334l-6.667 13.333 17.208-5.736a33.333 33.333 0 0 0 22.792-31.623v-62.641a33.333 33.333 0 0 0 -33.333 33.333z" fill="#61311c"/><path d="m191.553 183.634-4.124 6.1a8.434 8.434 0 0 1 -15.082-7.085l.577-1.976-27.479-13.373c-2.98 11.107-2.742 29.643 14.487 39.58 24.251 13.988 52.426-14.625 52.426-14.625z" fill="#6e3c26"/></g></svg>