<svg height="512" viewBox="0 0 512 512" width="512" xmlns="http://www.w3.org/2000/svg"><g id="Flat"><path d="m272 256v24a120 120 0 0 1 -72 24h-16.53a119.374 119.374 0 0 1 -14.88-.93l-56.59-7.07 2.49 32.34 4.848 63.047a8 8 0 0 1 -7.977 8.613h-45.471a9.885 9.885 0 0 1 -4.42-18.73l26.53-13.27-6.67-40-7.27-43.63a24.384 24.384 0 0 1 12.305-25.37 25 25 0 0 1 12.135-3z" fill="#feb784"/><path d="m272 256v24a120 120 0 0 1 -72 24h-16.53a119.374 119.374 0 0 1 -14.88-.93l-56.59-7.07 2.49 32.34-2.49-.34h-30.67l-7.27-43.63a24.363 24.363 0 0 1 24.03-28.37z" fill="#b03b8d"/><path d="m80 128 25.43-12.715a31.119 31.119 0 0 1 13.916-3.285 31.117 31.117 0 0 1 25.892 13.857l22.762 34.143 16 8h-32a32 32 0 0 1 -25.6-12.8l-6.388-8.517a16 16 0 0 0 -19.955-4.711l-20.057 10.028z" fill="#61311c"/><path d="m486.8 349.992-6.8 34.008-16 16h-24l8-16 8-24-40.66-12.51-63.34-19.49-80-32-58.7-26.09-13.3-5.91-40-8-22.27 11.13a26.262 26.262 0 0 1 -37.23-17.12l-4.5-18.01-39-36.1-19.75-.98-5.11-19.15-8.14-4.7 8.93-14.69-.71-6.44a25.369 25.369 0 0 1 6.47-18.46 25.827 25.827 0 0 1 17.75-8.5c14.19-.81 29.79 2.76 34.23 19.02 4 14.67 1.33 30.92-.33 39.59l21.66 10.41a83.234 83.234 0 0 1 30.86 5.94l25.14 10.06 40 16 18.61-3.1 13.87-2.31a48.4 48.4 0 0 1 53.86 32.42l1.66 4.99 64 32 48 16 20.61 10.31 53.924 26.958a8 8 0 0 1 4.266 8.724z" fill="#fec093"/><path d="m72.137 162.518c-.1-.106 3.419-3.727 3.836-4.179 1.844-2 3.317-3.825 3.553-6.675a9.074 9.074 0 0 0 -7.1-9.74c-2.953-.587-5.411.451-7.77 2.108-.4.284-4.766 3.848-4.9 3.718l-19.045-18.27c11-10.663 36.276-14.662 51.13.491 20.909 21.332-1.5 51.615-1.5 51.615z" fill="#6e3c26"/><path d="m428.61 314.31-13.27 33.18-63.34-19.49-80-32-58.7-26.09 13.31-49.01 13.87-2.31a48.4 48.4 0 0 1 53.86 32.42l1.66 4.99 64 32 48 16z" fill="#bc4598"/><path d="m168 208-8 48-22.27 11.13a26.262 26.262 0 0 1 -37.23-17.12l-4.5-18.01-.53-.49c7.44-6.74 15.1-18.66 16.74-39.51a83.364 83.364 0 0 1 30.65 5.94z" fill="#c378cb"/><path d="m108.832 192a19.169 19.169 0 0 0 -19.1 20.76l6.268 75.24-8 80-24 32h40l16-32 8-80v-76.832a19.168 19.168 0 0 0 -19.168-19.168z" fill="#fec9a3"/></g></svg>