<svg height="512" viewBox="0 0 512 512" width="512" xmlns="http://www.w3.org/2000/svg"><g id="Flat"><path d="m488 368.8h-6.733a26.933 26.933 0 0 1 -26.934-26.933v-47.134a26.934 26.934 0 0 1 26.934 26.934v33.666z" fill="#61311c"/><path d="m360 296-48 24-17.14-6.85a76.1 76.1 0 0 0 -62.34 2.59l-40.52 20.26-48 8-47.77 17.37-40.23 14.63h-32v56h16l16-8 50.19-3.86 148.12-11.39a115.675 115.675 0 0 0 40.69-10.85c2.4-1.14 4.76-2.36 7.07-3.68a114.364 114.364 0 0 0 12.55-8.18l13.38-10.04 40.43-18.92 11.57-5.41z" fill="#feb784"/><path d="m420.75 323v16l3.25 21v59.34a12.664 12.664 0 0 1 -25.25 1.39l-6.77-61.21-11.98-7.85-20-55.67 3.8-11.4-3.8-12.6 32-8 8 16 .42.72 4.27 7.27 3.81 6.51 12.44-3.44 11.06-3.06 5.57 25.85-8.82 4.8z" fill="#fec093"/><path d="m437.57 313.85-8.82 4.8a19.677 19.677 0 0 1 -7.81-27.59l11.06-3.06z" fill="#f7b488"/><path d="m420.75 326.88v10.62l-17.49 10.44-2.18 3.3a25 25 0 0 1 -9.1 8.28c-6.69 3.56-16.98 3.313-24.147-2.02l-23.166-53.667c2-11 10.073-17.763 19.133-19.233a24.974 24.974 0 0 1 7.91-.02l3.91.61 24.8-4.47 4.27 7.27-4.46 3.07a19.329 19.329 0 0 0 -6.72 23.72c4.35 10.78 15.85 12.41 22.44 12.41a33.431 33.431 0 0 0 4.8-.31z" fill="#c378cb"/><path d="m432.7 277.482 4.118 6.491 12.983-8.237-4.119-6.492a7.687 7.687 0 0 0 -10.61-2.372 7.687 7.687 0 0 0 -2.372 10.61z" fill="#feb784"/><path d="m470.4 308.192-4.119-6.491-12.981 8.238 4.119 6.491a7.689 7.689 0 0 0 10.61 2.373 7.687 7.687 0 0 0 2.371-10.611z" fill="#feb784"/><path d="m427.75 307.94a19.693 19.693 0 0 1 2.359-24.123l1.74-1.829a26.2 26.2 0 0 1 4.957-4.074l10.253-6.506a20.5 20.5 0 0 1 28.294 6.326 20.5 20.5 0 0 1 -6.326 28.294l-10.254 6.506a26.186 26.186 0 0 1 -5.8 2.75l-2.395.8a19.692 19.692 0 0 1 -22.828-8.144z" fill="#fec093"/><path d="m473.772 284.808s-5.91 9.819-9.883 28.856a65.114 65.114 0 0 0 12.211-6.054 25.626 25.626 0 0 0 7.908-35.368 25.626 25.626 0 0 0 -35.367-7.908 65.392 65.392 0 0 0 -6.4 4.634c6.65 5.132 13.709 13.976 31.531 15.84z" fill="#6e3c26"/><path d="m279.667 366.333-3.881-15.521 43.274-10.906 3.88 15.522z" fill="#f5a76e"/><path d="m410.523 432h-26.523v-24l8-8 21.791 5.448a13.477 13.477 0 0 1 10.209 13.075 13.477 13.477 0 0 1 -13.477 13.477z" fill="#fec9a3"/><path d="m24 396.05v16.24l78.536-13.71-2.673-15.775z" fill="#f5a76e"/><path d="m302.07 394.22c-2.31 1.32-4.67 2.54-7.07 3.68a115.675 115.675 0 0 1 -40.69 10.85l-148.12 11.39-9.96-58.77 47.77-17.37 48-8 40.52-20.26a76.073 76.073 0 0 1 40.81-7.74z" fill="#bc4598"/><path d="m360 272-24-40-56 64 8 16v24h-32l-8-32 58.283-84.186a36.677 36.677 0 0 1 37.348-15.088 36.679 36.679 0 0 1 24.651 17.768l23.718 41.506" fill="#fec093"/><path d="m243.99 357.64-144.127 25.165 2.673 15.775 144.474-25.22z" fill="#a33484"/></g></svg>