<svg height="512" viewBox="0 0 512 512" width="512" xmlns="http://www.w3.org/2000/svg"><g id="Flat"><path d="m272 280v64l6.86 48 1.14 8v88h-56l-.67-12.33 24.67-19.67v-32l-6.4-32-9.6-48v-176l-3.15-1.57a23.255 23.255 0 0 1 -6.04-37.24l13.84-15.43 8.75-9.76v-26.38h-16.05v-16.05l-5.35-5.35 9.98-9.67.78-5.19a20.693 20.693 0 0 1 24.4-16.14c11.19 2.29 20.62 14.46 18.34 25.65 0 0-1.96 10.54-5.35 26.63l-.15 26.5 5.05 30.32.91 5.47a79.931 79.931 0 0 1 .29 24.46l-2.05 11.75-4.2 24 11.3 22.6a44.716 44.716 0 0 1 3.44 9.4 2.864 2.864 0 0 1 .07.28 44.558 44.558 0 0 1 -6.29 34.94z" fill="#f7b488"/><path d="m278.25 164.25-2.05 11.75h-44.2v-8l-3.15-1.57a23.255 23.255 0 0 1 -6.04-37.24l13.84-15.43c8.25 8.23 21.15 16.98 40.4 20.56l.91 5.47a79.931 79.931 0 0 1 .29 24.46z" fill="#c378cb"/><path d="m272 280v64l6.86 48h-37.26l-9.6-48v-112h54.74a2.864 2.864 0 0 1 .07.28 44.558 44.558 0 0 1 -6.29 34.94z" fill="#bc4598"/><path d="m320 76.6v27.4l8 16-10.34-2.585a28.6 28.6 0 0 1 -21.66-27.742 28.6 28.6 0 0 0 -15.807-25.573l-.193-.1v-16h11.4a28.6 28.6 0 0 1 28.6 28.6z" fill="#61311c"/><path d="m264.917 64.983 5.286-3.5a7.26 7.26 0 0 0 -5.963-13.046l-5.686 1.2-7.282-24.49c9.588-2.466 25.541-2.094 33.94 12.825 11.824 21-13.059 39.531-13.059 39.531z" fill="#6e3c26"/><path d="m262.091 112a17.91 17.91 0 0 0 -10.919 3.714l-47.172 36.286-4-24 2.5-23-5-17h-21.5v85.206a18.794 18.794 0 0 0 18.794 18.794 18.8 18.8 0 0 0 9.67-2.678l66.841-40.1a17.91 17.91 0 0 0 8.695-15.362v-3.951a17.909 17.909 0 0 0 -17.909-17.909z" fill="#fec093"/></g></svg>