<svg height="512" viewBox="0 0 512 512" width="512" xmlns="http://www.w3.org/2000/svg"><g id="Flat"><path d="m104 392v64l-8 8h8a32 32 0 0 0 32-32v-40a16 16 0 0 0 -16-16 16 16 0 0 0 -16 16z" fill="#61311c"/><path d="m192 352-64 48-21.33 13.33-42.67 26.67 10.53 5.27a9.885 9.885 0 0 1 -4.42 18.73h-46.11a53.166 53.166 0 0 1 18-39.88l38.34-33.83 79.66-70.29z" fill="#feb784"/><path d="m192 352-64 48-21.33 13.33-26.33-23.04 79.66-70.29z" fill="#bc4598"/><path d="m488 440v24h-56v-8l16-16-37.53-27.29-50.47-36.71-88-72-9.64 5.79-30.36 18.21-48-32 6.97-13.94a44.031 44.031 0 0 1 6.56-9.65 44.687 44.687 0 0 1 5.24-4.96 43.9 43.9 0 0 1 41.36-7.41l4.04 1.35a24.68 24.68 0 0 0 15.66-.01 64.008 64.008 0 0 1 70.79 21.41l41.38 53.21 48 48 4.83 4.23z" fill="#fec093"/><path d="m428.83 388.23-18.36 24.48-50.47-36.71-88-72-9.64 5.79a96.264 96.264 0 0 0 -64.83-37.38 44.687 44.687 0 0 1 5.24-4.96 43.9 43.9 0 0 1 41.36-7.41l4.04 1.35a24.68 24.68 0 0 0 15.66-.01 64.008 64.008 0 0 1 70.79 21.41l41.38 53.21 48 48z" fill="#bc4598"/><path d="m232 328-5.47 32.83a32 32 0 0 1 -15.95 22.67l-51.58 28.83-55 25.78-32 16-24-16 16-16 16-8-8-8h32l40-22.11 32-16-54.33-54.33a32 32 0 0 1 -4.82-39.09l11.15-18.58 32-56 24-64v-24l16-24 24 8-32 112-32 72 13.99 9.33 10.01 6.67z" fill="#fec093"/><path d="m232 328s-50.76-7.25-69.43 26.57l-26.57-26.57s27.71 0 37.99-38.67l10.01 6.67z" fill="#c378cb"/><rect fill="#f7b488" height="16" rx="8" transform="matrix(.832 -.555 .555 .832 -168.118 164.746)" width="28.844" x="173.578" y="352"/><path d="m160 352c-1.521 1.283-22.429 10.08-24 11.389-15.232 12.686-30.508 24.953-30.508 24.953-11.353 9.452-30.993 6.157-40.445-5.2a26.74 26.74 0 0 1 3.445-37.675l5.431-4.066 4.906-17.285 9.37 2.819 11.062-5.946a8.314 8.314 0 0 1 11.2 3.286l5.779 10.4 19.76-6.675z" fill="#fec093"/><path d="m111.5 358.5-.745 8.161a9.389 9.389 0 0 1 -18.512 1.195l-2.743-6.856-29.794-1.664c-5.166 20.664 11.127 45.831 34.294 45.497 31.166-.448 42-41.444 42-41.444z" fill="#6e3c26"/></g></svg>