<svg height="512" viewBox="0 0 512 512" width="512" xmlns="http://www.w3.org/2000/svg"><g id="Flat"><path d="m471.42 109.68c-.97 8.83-2.44 17.6-4.27 26.32-7.24 34.44-19.14 68.3-29.41 101.63-3.03 9.84-10.59 23.96-10.59 34.37v216h-67.2a10.444 10.444 0 0 1 -10.28-7.95 10.236 10.236 0 0 1 4.71-11.03l35.04-21.02-7.47-72-10.8-104 18.27-152-16.24 7.58-18.03 8.42v56l5.89 11.78a45.222 45.222 0 0 1 -17.18 58.99l-10.82 6.5-15.75 9.45 7.14 18.8 19.63-2.47a8.431 8.431 0 0 1 10.27 5.95l5.33 19.05 14.97 6.02-6.06 25.84 1.48 5.31a38.606 38.606 0 0 1 -3.37 29.2 37.768 37.768 0 0 1 -9.9 11.5 36.989 36.989 0 0 1 -12.26 6.23 39.009 39.009 0 0 1 -47.51-24.09l-19.23-68.8-8.2-13.75a73.9 73.9 0 0 1 -10.43-37.89 248.856 248.856 0 0 1 9.56-68.71c.43-1.51.87-3.02 1.33-4.53a297.767 297.767 0 0 1 15.77-40.61q2.025-4.305 4.19-8.6c12.63-25.08 24.26-50.77 38.79-74.81 1.05-1.74 2.1-3.4 3.17-4.99 17.5-26.26 36.71-33.37 62.02-33.37a81.163 81.163 0 0 1 38.3 9.6c29.36 15.71 42.76 43.31 39.14 76.08z" fill="#feb784"/><path d="m361.04 244.22a45.563 45.563 0 0 1 -7.27 10.5 45.106 45.106 0 0 1 -9.91 8.05l-10.82 6.5c-6.25-19.35-23.71-59.8-64.33-78.36.43-1.51.87-3.02 1.33-4.53a297.767 297.767 0 0 1 15.77-40.61l69.34 46.23 5.89 11.78a45.241 45.241 0 0 1 0 40.44z" fill="#c378cb"/><path d="m471.42 109.68c-.97 8.83-2.44 17.6-4.27 26.32-7.24 34.44-19.14 68.3-29.41 101.63-3.03 9.84-10.59 23.96-10.59 34.37v104h-45.2l-10.8-104 18.27-152-16.24 7.58-41.22-70.21c17.5-26.26 36.71-33.37 62.02-33.37a81.163 81.163 0 0 1 38.3 9.6c29.36 15.71 42.76 43.31 39.14 76.08z" fill="#bc4598"/><rect fill="#a33484" height="16.001" rx="8" transform="matrix(.164 -.986 .986 .164 234.042 468.283)" width="48.662" x="369.091" y="88"/><path d="m296.884 239.362-96.884-55.362-104-48-24-32h-24l-16 24v24l48 16 96 56 88 66a30 30 0 0 0 18 6 30 30 0 0 0 30-30v-.59a30 30 0 0 0 -15.116-26.048z" fill="#fec093"/><path d="m240 408v64l-8 16 20.649-6.883a40 40 0 0 0 27.351-37.947v-75.17a40 40 0 0 0 -40 40z" fill="#61311c"/><path d="m300.78 342.948-5.68 10.207a13.634 13.634 0 0 0 .12 13.37 13.344 13.344 0 0 0 20.66 3.393l2.384-2.213 38.513 30.219c.046.036-27.95 26.146-63.294 7.486a52.377 52.377 0 0 1 -26.2-32.2 51.243 51.243 0 0 1 -1.2-5.725l-.166-1.512c-2.2-20.134 2.113-37.2 11.862-54.711z" fill="#6e3c26"/></g></svg>