<svg height="512" viewBox="0 0 512 512" width="512" xmlns="http://www.w3.org/2000/svg"><g id="Flat"><path d="m404 488h-68a32 32 0 0 1 32-32h24l8-8h4a20 20 0 0 1 20 20 20 20 0 0 1 -20 20z" fill="#61311c"/><path d="m406.48 451.85c-2.84 13.93-17.99 25.67-31.92 22.83 0 0-26.53-6.46-46.56-10.68h-56l-3.9-6.83-28.1-49.17v-64l-14.65-14.65a47.827 47.827 0 0 1 -7.27-9.35c-.18-.29-.35-.58-.52-.88a47.719 47.719 0 0 1 .61-48.07l13.83-23.05 5.12-128 2.88-72 37.31-22.39a11.363 11.363 0 0 1 5.82-1.61h1.56a11.314 11.314 0 0 1 8 19.31l-20.69 20.69 3.86 56 12.14 176v72h2.45a27.6 27.6 0 0 1 23.67 41.8l-5.32 8.87-7.51 12.51 39.98 3.55v-19.97h19.97l6.66-6.66 12.04 12.41 6.45.98a25.734 25.734 0 0 1 20.09 30.36z" fill="#feb784"/><path d="m314.12 409.8-5.32 8.87c-11.08 4.4-25.74 14.76-40.7 38.5l-28.1-49.17v-40h50.45a27.6 27.6 0 0 1 23.67 41.8z" fill="#c378cb"/><path d="m357 459.019 4.35 6.578a9.035 9.035 0 0 0 16.236-7.421l-.6-2.124 29.587-14.014c3.068 11.932 2.606 31.786-15.962 42.239-26.137 14.715-62.611-20.277-62.611-20.277z" fill="#6e3c26"/><path d="m288 296v24h-69.92c-.18-.29-.35-.58-.52-.88a47.719 47.719 0 0 1 .61-48.07l13.83-23.05 5.12-128h38.74z" fill="#bc4598"/><path d="m216 456 8-40 25.956-11.724a8.576 8.576 0 0 0 5.044-7.814 8.574 8.574 0 0 0 -12.2-7.77l-2.8 1.308v-38l-16 8-43.258 86.516a28.662 28.662 0 0 0 -2.17 19.771 28.665 28.665 0 0 0 27.809 21.713h69.619a20 20 0 0 0 20-20 20 20 0 0 0 -20-20h-4z" fill="#fec093"/></g></svg>