<svg id="Layer_1" enable-background="new 0 0 512 512" height="512" viewBox="0 0 512 512" width="512" xmlns="http://www.w3.org/2000/svg"><g id="Flat"><path d="m88 128h-32c-17.7 0-32 14.3-32 32v88h8c17.7 0 32-14.3 32-32v-48l24-16z" fill="#6e3c26"/><path d="m488 60v76l-24 8-22.2 53.2-17.8 42.8-8 10.7-16 21.3-6.2 13.5-64.1 139.8c-15.2 33.3-54.5 47.9-87.8 32.6-12.2-5.6-22.3-14.7-29.2-26.1l-4.7-7.8s-.8-1.3-.9-1.4c-2.4-4-5.8-11.1-9.4-18.8-5.1-11-10.6-23-14.1-28.8-3.1-5.1-10.5-11.9-19.8-20.4-10.6-9.8-23.6-21.8-34.8-35.8-11-13.8-20.3-29.6-23.9-47.2-.3-1.2-.5-2.5-.7-3.7 0-.1-.2-1.5-.5-3.9 0-.1 0-.3-.1-.4-.4-3.5-1.1-8.9-2-15.5-.3-2.5-.7-5.3-1-8.1-1.1-8.9-2.4-19-3.7-29.4-4.1-32.3-8.4-66.3-8.4-66.3-2.4-19.7 11.7-37.6 31.4-40s37.6 11.7 40 31.4l.6 9.1 12.7 15.2-9 11.4.4 24.9-23.6 1.3 4.3 33.4 9.6 3.8 8.9 3.6 20.8 8.3 2.9 1.2 4.3 1.7c16 6.4 27 21.3 28.3 38.4.1 1.1.1 2.3.1 3.5 0 4.8-.8 9.7-2.3 14.2l-2.1 6.3 16 24 17.4 8.7 16.6 8.3 14 7 .6-1 50-77.5 21.9-33.9 43.2-66.9 44.3-68.7 24-48v-4c0-6.6 5.4-12 12-12s12 5.4 12 12z" fill="#fec093"/><path d="m441.8 197.2-17.8 42.8-8 10.7-16 21.3-6.2 13.5-64.1 139.8c-15.2 33.3-54.5 47.9-87.8 32.6-12.2-5.6-22.3-14.7-29.2-26.1l-4.7-7.8s-.8-1.3-.9-1.4c-2.4-4-5.8-11.1-9.4-18.8l51.7-59 16.6 8.2 14 7 .6-1 50-77.5 21.9-33.9 43.2-66.9z" fill="#bc4598"/><path d="m220.4 291.5c0 4.8-.8 9.7-2.3 14.2l-2.1 6.3-52.1 42.6c-10.6-9.8-23.6-21.8-34.8-35.8 14.9-6.8 30.9-17.3 30.9-30.8 0-34.4-28.1-25.2-55.9-24h-.1c0-.1 0-.3 0-.4.2-13.1 10.9-23.6 24-23.6 0 0 11.7-2.3 27.2-5.2l8.9 3.6 20.8 8.3 7.2 2.9c17.1 6.9 28.3 23.4 28.3 41.9z" fill="#c378cb"/><path d="m104.7 172.3-8.7-6.8c-5.5-4.3-6.4-12.2-2.1-17.7 3.4-4.3 9.2-6 14.3-4l2.9 1.1 22.9-39.6c-16.3-5.6-44-7.2-60.6 17.4-23.5 34.7 24 88 24 88z" fill="#6e3c26"/><path d="m416 248v32l-32 8-32-8-112 8h-112c-13.3 0-24-10.7-24-24s10.7-24 24-24c10.6 0 21.2 1.3 31.5 3.9l.5.1c9.1 2.3 18.5 3.6 27.9 3.9 1.5.1 3.1.1 4.6.1h159.5l27.1-20.3c3.1-2.4 7.6-1.7 10 1.4 1.6 2.2 1.9 5 .7 7.5l-5.8 11.4z" fill="#fec9a3"/><path d="m256.1 382c-3.6-2.4-4.6-7.4-2.2-11l12-17.9 14 7-12.8 19.7c-2.3 3.6-7.2 4.6-11 2.2.1 0 .1 0 0 0z" fill="#a33484"/></g></svg>